# xmcd
#
# Track frame offsets: 
#        150
#        23385
#        39204
#        58822
#        76502
#        98059
#        113038
#        133415
#        153551
#        169109
#        185795
#        201879
#        222167
#
# Disc length: 3191 seconds
#
# Revision: 3
# Processed by: cddbd v1.5.2PL0 Copyright (c) Steve Scherf et al.
# Submitted via: ExactAudioCopyFreeDBPlugin 1.0
#
DISCID=a80c750d
DTITLE=Variour Artists - The Beautiful Sound Of SAX 2
DYEAR=2009
DGENRE=Jazz
TTITLE0=Hirsch - Miller - I've Never Been To Me
TTITLE1=Hamlisch - Sager - Looking Through The Eyes Of Love
TTITLE2=Gibb B.M &B - How Deep Is Your Love
TTITLE3=Grusin - Bergman - It Might Be You
TTITLE4=Russell - This Masquerade
TTITLE5=Ellington - Russell - Don't Get Around Much Anymore
TTITLE6=Tempchin - Frey - The One You Love
TTITLE7=Bell - Creed - You Make Me Feel Brand New
TTITLE8=Gaste - Albert - Feelings
TTITLE9=Willson - Till There Was You
TTITLE10=Arnold - Walker - You Don't Know Me
TTITLE11=Chaplin - Parsons - Turner - Smile
TTITLE12=Crewe - Gaudio - Can't Take My Eyes Off You
EXTD=YEAR: 2009
EXTT0=
EXTT1=
EXTT2=
EXTT3=
EXTT4=
EXTT5=
EXTT6=
EXTT7=
EXTT8=
EXTT9=
EXTT10=
EXTT11=
EXTT12=
PLAYORDER=
